<svg xmlns="http://www.w3.org/2000/svg" viewBox="0 0 566.93 566.93"><defs><style>.cls-1,.cls-2{fill:none;stroke:#bcbec0;stroke-miterlimit:10;}.cls-1{stroke-width:8.71px;}.cls-2{stroke-width:12.74px;}.cls-3{fill:#d1d3d4;}</style></defs><g id="Layer_10" data-name="Layer 10"><line class="cls-1" x1="220.4" y1="156.29" x2="238.44" y2="111.44"/><line class="cls-1" x1="275.24" y1="142.78" x2="238.44" y2="111.44"/><circle class="cls-2" cx="238.83" cy="113.05" r="3.03"/><path class="cls-3" d="M331.46,174.88l32.07,130.23c10.11,40.37-19.93,60.17-60.08,70.14s-76.07,6.25-85.86-34.19L185.51,210.82c-10.13-40.44,19.94-60.16,60.16-70.15S321.51,134.47,331.46,174.88Zm-41,12.81c-4.05-17.48-19.31-17.1-36.39-13.14-17,4.45-30.73,11.19-26.21,28.55l31.13,126.38c4.07,17.56,19.33,17.17,36.49,13.2,17-4.43,30.65-11.18,26.1-28.62Z"/><path class="cls-3" d="M9.16,300.23l75.22-142H131.2l-76.47,142Zm0,25v-25l15.92-11.86H182.39V325.2ZM113.1,377.64V238.12h41.82V377.64Z"/><path class="cls-3" d="M384.23,300.23l75.22-142h46.82l-76.47,142Zm0,25v-25l15.92-11.86H557.46V325.2Zm103.94,52.44V238.12H530V377.64Z"/></g></svg>